Coordinates
version=1
nRows=11
nColumns=63
inDegrees=yes

Units are S.I. units (second, meters, Newtons, ...)
If the header above contains a line with 'inDegrees', this indicates whether rotational values are in degrees (yes) or radians (no).

endheader
time	pelvis_tilt	pelvis_list	pelvis_rotation	pelvis_tx	pelvis_ty	pelvis_tz	hip_flexion_r	hip_adduction_r	hip_rotation_r	knee_angle_r	knee_angle_r_beta	ankle_angle_r	subtalar_angle_r	mtp_angle_r	hip_flexion_l	hip_adduction_l	hip_rotation_l	knee_angle_l	knee_angle_l_beta	ankle_angle_l	subtalar_angle_l	mtp_angle_l	L5_S1_Flex_Ext	L5_S1_Lat_Bending	L5_S1_axial_rotation	L4_L5_Flex_Ext	L4_L5_Lat_Bending	L4_L5_axial_rotation	L3_L4_Flex_Ext	L3_L4_Lat_Bending	L3_L4_axial_rotation	L2_L3_Flex_Ext	L2_L3_Lat_Bending	L2_L3_axial_rotation	L1_L2_Flex_Ext	L1_L2_Lat_Bending	L1_L2_axial_rotation	L1_T12_Flex_Ext	L1_T12_Lat_Bending	L1_T12_axial_rotation	Abs_r3	Abs_r2	Abs_r1	Abs_t1	Abs_t2	neck_flexion	neck_bending	neck_rotation	arm_flex_r	arm_add_r	arm_rot_r	elbow_flex_r	pro_sup_r	wrist_flex_r	wrist_dev_r	arm_flex_l	arm_add_l	arm_rot_l	elbow_flex_l	pro_sup_l	wrist_flex_l	wrist_dev_l
      0.00000000	     -1.75072276	     -6.04866392	     92.89992153	      0.17983545	      1.05700751	      0.12457360	      2.62168218	     -2.13537672	     -8.14625938	      6.99929257	      0.12216070	     35.49854344	     11.88836157	      0.00000000	      5.60140869	      4.58843062	     14.07381534	      7.87398198	      0.13742691	     30.74298679	    -17.81093099	      0.00000000	      0.22528193	     -0.08114314	      0.23726666	      0.41837107	     -0.10792038	      0.25209583	      0.37011568	     -0.19729144	      0.25209583	      0.25747472	     -0.19729144	      0.20760833	      0.20919680	     -0.16546710	      0.19277916	      0.12872609	     -0.12569073	      0.17795000	      1.60916629	     -0.91790746	      1.31960600	      0.00000000	      0.00000000	     27.51812684	     -0.05249709	      5.83997003	     25.06788091	     -1.31212969	     96.17086302	     29.84486447	     74.81174472	      3.54492321	      1.72066885	     24.43845243	     -4.33069488	     83.39440957	     36.58149754	     71.20668804	      2.45345372	     10.21358402
      0.01694915	     -1.82029048	     -5.85025520	     94.22885879	      0.17844233	      1.05771666	      0.12318793	      2.11212260	     -2.16756737	     -9.06188062	      6.83041910	      0.11921330	     36.39816013	     11.50945879	      0.00000000	      5.09996116	      4.68206116	     15.34546765	      7.30704230	      0.12753195	     30.73096927	    -17.70466026	      0.00000000	      0.22726160	     -0.10710025	     -0.02136874	      0.42204752	     -0.14244333	     -0.02270428	      0.37336809	     -0.26040355	     -0.02270428	      0.25973729	     -0.26040355	     -0.01869764	      0.21103512	     -0.21839883	     -0.01736210	      0.12985728	     -0.16589829	     -0.01602655	      1.62330690	     -1.21153945	     -0.11884650	      0.00000000	      0.00000000	     27.41487070	      0.35283895	      6.07150588	     24.27189598	     -1.00643720	     94.72430373	     29.51993490	     75.17566211	      4.52302133	      1.91211156	     24.22668813	     -4.25548070	     82.56091568	     36.45306148	     69.17926035	      4.34708928	     12.47183685
      0.03389831	     -1.77209776	     -5.73992497	     95.04411008	      0.17730506	      1.05813443	      0.12199340	      1.84135766	     -2.09141105	     -9.32663823	      6.76713538	      0.11810879	     36.85826813	     10.90270611	      0.00000000	      4.76980267	      4.64718675	     16.18902395	      6.91537962	      0.12069614	     30.69937008	    -17.81706684	      0.00000000	      0.23452776	     -0.10750002	     -0.18008960	      0.43554151	     -0.14297503	     -0.19134520	      0.38530566	     -0.26137555	     -0.19134520	      0.26804178	     -0.26137555	     -0.15757840	      0.21778248	     -0.21921404	     -0.14632280	      0.13400916	     -0.16651753	     -0.13506720	      1.67520836	     -1.21606172	     -1.00160435	      0.00000000	      0.00000000	     27.35938036	      0.48081239	      5.99297260	     23.09228120	     -1.22220540	     91.36262482	     29.77271338	     73.40199120	      5.69820633	      3.57763772	     23.94831727	     -4.09283805	     82.34671429	     36.32530202	     65.74636292	      4.74919011	     14.09858396
      0.05084746	     -1.76473792	     -5.60833797	     95.37605521	      0.17694433	      1.05847905	      0.12090666	      1.63218377	     -2.05288019	     -9.47109990	      6.73477127	      0.11754393	     37.09678318	     10.62948801	      0.00000000	      4.33242935	      4.57498993	     16.45951503	      6.39408781	      0.11159788	     30.63610875	    -17.72754407	      0.00000000	      0.22862969	     -0.10942617	     -0.23972258	      0.42458820	     -0.14553681	     -0.25470524	      0.37561572	     -0.26605879	     -0.25470524	      0.26130087	     -0.26605879	     -0.20975725	      0.21230553	     -0.22314185	     -0.19477459	      0.13063900	     -0.16950114	     -0.17979193	      1.63307901	     -1.23785073	     -1.33326505	      0.00000000	      0.00000000	     27.36570038	      0.48736388	      5.58466262	     22.31178196	     -1.35294053	     89.78409725	     29.81554290	     68.32061365	      6.37405602	      4.77145288	     23.94714882	     -3.99714055	     83.32147664	     36.20372738	     63.42228934	      4.57450816	     14.32657622
      0.06779661	     -1.68636504	     -5.55528502	     96.21673649	      0.17605025	      1.05875203	      0.12039651	      1.45074404	     -2.11032942	    -12.77318007	      6.70821617	      0.11708046	     37.55742013	     13.75823363	      0.00000000	      4.30420070	      4.53688483	     17.30604487	      6.46811531	      0.11288991	     30.67737689	    -17.85116619	      0.00000000	      0.22203652	     -0.10879742	     -0.39260420	      0.41234403	     -0.14470057	     -0.41714196	      0.36478380	     -0.26453004	     -0.41714196	      0.25376554	     -0.26453004	     -0.34352867	      0.20618312	     -0.22185969	     -0.31899091	      0.12687167	     -0.16852720	     -0.29445315	      1.58598469	     -1.23073815	     -2.18354676	      0.00000000	      0.00000000	     27.36191839	      0.35945245	      4.74570325	     21.47583242	     -1.84357010	     92.55010971	     32.24195610	     13.16410445	     -0.00824381	     12.89175137	     23.86119072	     -4.04085273	     84.01104872	     36.18961293	     62.04217659	      4.32303071	     13.90900657
      0.08474576	     -1.56246163	     -5.52717130	     96.54296101	      0.17571318	      1.05877358	      0.11971390	      1.30214527	     -1.97448820	    -13.56655207	      6.51647887	      0.11373401	     37.50119427	     14.34499450	      0.00000000	      4.20514737	      4.39286913	     17.66786548	      6.38408226	      0.11142326	     30.72301573	    -17.90870844	      0.00000000	      0.21538569	     -0.09217084	     -0.45701365	      0.39999276	     -0.12258722	     -0.48557701	      0.35385715	     -0.22410418	     -0.48557701	      0.24616431	     -0.22410418	     -0.39988695	      0.20000715	     -0.18795478	     -0.37132359	      0.12307138	     -0.14277263	     -0.34276024	      1.53847844	     -1.04265498	     -2.54177284	      0.00000000	      0.00000000	     27.38616534	      0.20190595	      4.23450004	     21.03818174	     -2.06537308	     91.52100323	     32.77040089	      8.77726706	     -1.12601094	     13.14853819	     23.56562442	     -4.06919880	     83.96698143	     36.17347899	     62.87878673	      4.26761869	     13.02268802
      0.10169492	     -1.46607853	     -5.52395149	     96.58182275	      0.17596975	      1.05879534	      0.11906275	      1.20397008	     -1.82613014	    -13.70334459	      6.29260717	      0.10982671	     37.39587077	     14.49209397	      0.00000000	      4.12965829	      4.25289529	     17.69766839	      6.30879178	      0.11010919	     30.74801465	    -17.91507739	      0.00000000	      0.20484926	     -0.07958065	     -0.44715802	      0.38042555	     -0.10584226	     -0.47510540	      0.33654684	     -0.19349239	     -0.47510540	      0.23412221	     -0.19349239	     -0.39126327	      0.19022302	     -0.16228086	     -0.36331589	      0.11705086	     -0.12327042	     -0.33536852	      1.46321775	     -0.90023220	     -2.48695876	      0.00000000	      0.00000000	     27.39615784	     -0.01300877	      3.71190645	     20.74589720	     -2.20404956	     90.93677746	     33.02199134	      6.66235798	     -1.68027758	     12.87113456	     23.53862120	     -4.08939591	     84.74053511	     36.22168893	     62.32783000	      4.06952993	     12.29258439
      0.11864407	     -1.38918520	     -5.57565884	     96.35519859	      0.17665524	      1.05876809	      0.11841171	      1.21942357	     -1.69353374	    -13.43221854	      6.10756747	      0.10659716	     37.33794798	     14.51590045	      0.00000000	      4.07202605	      4.10514475	     17.55928982	      6.16278374	      0.10756087	     30.67571601	    -17.99512476	      0.00000000	      0.19681842	     -0.06796766	     -0.37910422	      0.36551150	     -0.09039698	     -0.40279823	      0.32335299	     -0.16525656	     -0.40279823	      0.22494378	     -0.16525656	     -0.33171619	      0.18276559	     -0.13859965	     -0.30802218	      0.11246205	     -0.10528190	     -0.28432816	      1.40585432	     -0.76886373	     -2.10846392	      0.00000000	      0.00000000	     27.36414865	     -0.15919641	      3.44836633	     20.51001509	     -2.30641961	     90.46598197	     32.92881764	      7.85874547	     -1.19630643	     12.45858023	     23.49698831	     -4.10166533	     85.18093812	     36.31662970	     61.79150953	      3.95932376	     11.92295716
      0.13559322	     -1.33347838	     -5.62388252	     96.31517956	      0.17723355	      1.05873837	      0.11786475	      1.17007340	     -1.55641538	    -13.09562751	      5.84817604	      0.10206993	     37.33411483	     14.36213051	      0.00000000	      4.11701174	      4.01070173	     17.44996263	      6.22218004	      0.10859753	     30.68444832	    -17.97586874	      0.00000000	      0.18458047	     -0.06386674	     -0.33412488	      0.34278439	     -0.08494276	     -0.35500769	      0.30324725	     -0.15528559	     -0.35500769	      0.21095702	     -0.15528559	     -0.29235927	      0.17140142	     -0.13023705	     -0.27147647	      0.10546928	     -0.09892958	     -0.25059366	      1.31843982	     -0.72247332	     -1.85830237	      0.00000000	      0.00000000	     27.32527335	     -0.42792496	      2.93690516	     20.38595243	     -2.36935892	     90.64961294	     33.00539575	      7.81739526	     -1.27851229	     11.66863377	     23.58874523	     -4.08840324	     85.65721789	     36.26112096	     62.65715594	      4.34687696	     11.12317178
      0.15254237	     -1.30637235	     -5.66517453	     95.90575995	      0.17838735	      1.05865521	      0.11734319	      1.17373782	     -1.41836583	    -11.98901247	      5.62973013	      0.09825733	     37.31387528	     13.73484793	      0.00000000	      4.09715678	      3.89197624	     16.86514196	      6.20056394	      0.10822026	     30.65917183	    -17.78034386	      0.00000000	      0.17229644	     -0.06098841	     -0.20237835	      0.31997171	     -0.08111458	     -0.21502700	      0.28306581	     -0.14828722	     -0.21502700	      0.19691760	     -0.14828722	     -0.17708106	      0.15999447	     -0.12436756	     -0.16443241	      0.09845018	     -0.09447104	     -0.15178376	      1.23069621	     -0.68991307	     -1.12556767	      0.00000000	      0.00000000	     27.27138573	     -0.58330318	      2.82934571	     20.41779687	     -2.40666596	     91.19537763	     32.77248060	     11.36478456	     -0.47182721	     11.01857235	     23.78886497	     -4.01418337	     86.24852694	     36.28219563	     62.10048328	      4.70592439	     11.23421607
      0.16949153	     -1.24863470	     -5.74034130	     95.63450156	      0.17918566	      1.05833001	      0.11694459	      1.22263237	     -1.30515430	    -11.65249565	      5.47371339	      0.09553432	     37.49815694	     13.96398776	      0.00000000	      4.25848812	      3.80842729	     16.46616027	      6.47674556	      0.11304053	     30.76683138	    -17.80200530	      0.00000000	      0.17231784	     -0.05332393	     -0.12430920	      0.32001145	     -0.07092083	     -0.13207853	      0.28310097	     -0.12965180	     -0.13207853	      0.19694206	     -0.12965180	     -0.10877055	      0.16001434	     -0.10873816	     -0.10100123	      0.09846241	     -0.08259877	     -0.09323190	      1.23084908	     -0.60321097	     -0.69137048	      0.00000000	      0.00000000	     27.16847540	     -0.69163135	      3.02186314	     20.99823046	     -2.23826305	     92.06730262	     31.32065570	     36.20630851	      3.07974754	      7.55777681	     23.50902145	     -4.01089498	     84.79600828	     36.35953271	     64.79758644	      5.80263947	     11.71153601
